<!DOCTYPE svg PUBLIC "-//W3C//DTD SVG 1.1//EN" "http://www.w3.org/Graphics/SVG/1.1/DTD/svg11.dtd" [
	<!ENTITY ns_flows "http://ns.adobe.com/Flows/1.0/">
]><svg xmlns="http://www.w3.org/2000/svg" xmlns:xlink="http://www.w3.org/1999/xlink" width="40" height="40" viewBox="-8.143 -8.143 40 40" enable-background="new -8.143 -8.143 40 40"><defs><symbol id="a" viewBox="-32 -32 64 64"><path fill="#fff" d="M8.452 15.699l-8.453-8.453-8.452 8.451-7.245-7.244 8.453-8.453-8.453-8.453 7.245-7.244 8.452 8.453 8.453-8.453 7.245 7.244-8.453 8.453 8.453 8.453zM22.627 22.627c-6.248 6.248-14.438 9.373-22.627 9.373s-16.38-3.125-22.628-9.373c-12.496-12.496-12.496-32.758 0-45.254 6.248-6.248 14.439-9.373 22.628-9.373s16.379 3.125 22.627 9.373c12.497 12.496 12.497 32.758 0 45.254zm-3.536-41.719c-5.099-5.099-11.879-7.908-19.091-7.908s-13.993 2.809-19.093 7.908c-5.098 5.1-7.907 11.881-7.907 19.092 0 7.213 2.809 13.992 7.907 19.092 5.1 5.099 11.881 7.908 19.093 7.908s13.992-2.809 19.091-7.908h.001c5.099-5.1 7.908-11.879 7.908-19.092 0-7.211-2.809-13.992-7.909-19.092z"/></symbol></defs><use xlink:href="#a" width="64" height="64" x="-32" y="-32" transform="matrix(.37 0 0 -.37 11.857 11.857)" overflow="visible"/></svg>