<?xml version="1.0" encoding="utf-8"?>
<!-- Generator: Adobe Illustrator 14.0.0, SVG Export Plug-In  -->
<!DOCTYPE svg PUBLIC "-//W3C//DTD SVG 1.1//EN" "http://www.w3.org/Graphics/SVG/1.1/DTD/svg11.dtd" [
	<!ENTITY ns_flows "http://ns.adobe.com/Flows/1.0/">
]>
<svg version="1.1"
	 xmlns="http://www.w3.org/2000/svg" xmlns:xlink="http://www.w3.org/1999/xlink" xmlns:a="http://ns.adobe.com/AdobeSVGViewerExtensions/3.0/"
	 x="0px" y="0px" width="40px" height="40px" viewBox="-8.143 -8.143 40 40" enable-background="new -8.143 -8.143 40 40"
	 xml:space="preserve">
<defs>
	<symbol  id="Delete" viewBox="-32 -32 64 64">
		<polygon fill="#FFFFFF" points="8.452,15.699 -0.001,7.246 -8.453,15.697 -15.698,8.453 -7.245,0 -15.698,-8.453 -8.453,-15.697 
			-0.001,-7.244 8.452,-15.697 15.697,-8.453 7.244,0 15.697,8.453 		"/>
		<path fill="#FFFFFF" d="M22.627,22.627C16.379,28.875,8.189,32,0,32s-16.38-3.125-22.628-9.373
			c-12.496-12.496-12.496-32.758,0-45.254C-16.38-28.875-8.189-32,0-32s16.379,3.125,22.627,9.373
			C35.124-10.131,35.124,10.131,22.627,22.627z M19.091-19.092C13.992-24.191,7.212-27,0-27s-13.993,2.809-19.093,7.908
			C-24.191-13.992-27-7.211-27,0c0,7.213,2.809,13.992,7.907,19.092C-13.993,24.191-7.212,27,0,27s13.992-2.809,19.091-7.908h0.001
			C24.191,13.992,27,7.213,27,0C27-7.211,24.191-13.992,19.091-19.092z"/>
	</symbol>
</defs>
<use xlink:href="#Delete"  width="64" height="64" id="XMLID_2_" x="-32" y="-32" transform="matrix(0.3705 0 0 -0.3705 11.8569 11.8569)" overflow="visible"/>
</svg>
